<svg width="192" height="192" viewBox="0 0 512 512" fill="none" xmlns="http://www.w3.org/2000/svg">
  <!-- Background Circle -->
  <circle cx="256" cy="256" r="240" fill="#36322F" stroke="#FFA500" stroke-width="8"/>
  
  <!-- Fire Icon -->
  <path d="M256 120c-20 0-36 16-36 36 0 12 6 22 14 28-8-4-14-12-14-22 0-16 12-28 28-28 8 0 14 4 18 10 4-6 10-10 18-10 16 0 28 12 28 28 0 10-6 18-14 22 8-6 14-16 14-28 0-20-16-36-36-36z" fill="#FF6B35"/>
  
  <!-- Code Brackets -->
  <path d="M180 200 L140 240 L180 280" stroke="#FFA500" stroke-width="6" stroke-linecap="round" stroke-linejoin="round" fill="none"/>
  <path d="M332 200 L372 240 L332 280" stroke="#FFA500" stroke-width="6" stroke-linecap="round" stroke-linejoin="round" fill="none"/>
  
  <!-- AI Pattern -->
  <circle cx="220" cy="240" r="8" fill="#FFA500"/>
  <circle cx="256" cy="220" r="8" fill="#FFA500"/>
  <circle cx="292" cy="240" r="8" fill="#FFA500"/>
  <circle cx="256" cy="260" r="8" fill="#FFA500"/>
  
  <!-- Connecting Lines -->
  <line x1="220" y1="240" x2="248" y2="228" stroke="#FFA500" stroke-width="3"/>
  <line x1="264" y1="228" x2="292" y2="240" stroke="#FFA500" stroke-width="3"/>
  <line x1="248" y1="252" x2="220" y2="240" stroke="#FFA500" stroke-width="3"/>
  <line x1="292" y1="240" x2="264" y2="252" stroke="#FFA500" stroke-width="3"/>
  
  <!-- Sandbox -->
  <rect x="200" y="320" width="112" height="80" rx="8" stroke="#FFA500" stroke-width="4" fill="none"/>
  <rect x="210" y="330" width="20" height="20" rx="4" fill="#FF6B35"/>
  <rect x="240" y="330" width="20" height="20" rx="4" fill="#FF6B35"/>
  <rect x="270" y="330" width="20" height="20" rx="4" fill="#FF6B35"/>
  
  <!-- Text -->
  <text x="256" y="440" text-anchor="middle" fill="#FFA500" font-family="Arial, sans-serif" font-size="24" font-weight="bold">OL</text>
</svg>